<svg viewBox="0 0 1024 1024" xmlns="http://www.w3.org/2000/svg"><defs><linearGradient id="gAW" x1="0" y1="0" x2="1" y2="1"><stop offset="0" stop-color="#FF9A3C"/><stop offset="1" stop-color="#EE4380"/></linearGradient><mask id="mAW" maskUnits="userSpaceOnUse" x="0" y="0" width="1024" height="1024"><rect width="1024" height="1024" fill="#fff"/><g fill="none" stroke="#000" stroke-width="22" stroke-linecap="round"><circle cx="745" cy="661" r="52"/><ellipse cx="745" cy="661" rx="22" ry="52"/><line x1="693" y1="661" x2="797" y2="661"/></g></mask></defs><rect width="1024" height="1024" fill="url(#gAW)"/><path fill-rule="evenodd" fill="#fff" d="M225,257 H409 A40,40 0 0 1 449,297 V460 A40,40 0 0 1 409,500 H225 A40,40 0 0 1 185,460 V297 A40,40 0 0 1 225,257 Z M222,320 H412 A12,12 0 0 1 424,332 V462 A12,12 0 0 1 412,474 H222 A12,12 0 0 1 210,462 V332 A12,12 0 0 1 222,320 Z"/><path d="M289,366 A28,28 0 1 1 335,387 Q317,398 317,418" fill="none" stroke="#fff" stroke-width="22" stroke-linecap="round" stroke-linejoin="round"/><circle cx="317" cy="448" r="13" fill="#fff"/><path fill-rule="evenodd" fill="#fff" d="M614,257 H798 A40,40 0 0 1 838,297 V460 A40,40 0 0 1 798,500 H614 A40,40 0 0 1 574,460 V297 A40,40 0 0 1 614,257 Z M611,320 H801 A12,12 0 0 1 813,332 V462 A12,12 0 0 1 801,474 H611 A12,12 0 0 1 599,462 V332 A12,12 0 0 1 611,320 Z"/><rect x="675" y="346" width="20" height="20" rx="4" fill="#fff"/><rect x="717" y="346" width="20" height="20" rx="4" fill="#fff"/><rect x="759" y="346" width="20" height="20" rx="4" fill="#fff"/><rect x="632" y="387" width="20" height="20" rx="4" fill="#fff"/><rect x="675" y="387" width="20" height="20" rx="4" fill="#fff"/><rect x="717" y="387" width="20" height="20" rx="4" fill="#fff"/><rect x="759" y="387" width="20" height="20" rx="4" fill="#fff"/><rect x="632" y="429" width="20" height="20" rx="4" fill="#fff"/><rect x="675" y="429" width="20" height="20" rx="4" fill="#fff"/><rect x="717" y="429" width="20" height="20" rx="4" fill="#fff"/><path d="M293,641 Q500,860 668,700" fill="none" stroke="#fff" stroke-width="48" stroke-linecap="round"/><rect x="660" y="576" width="170" height="170" rx="36" fill="#fff" mask="url(#mAW)"/></svg>
